<?xml version="1.0" encoding="UTF-8"?>
<svg id="Layer_1" xmlns="http://www.w3.org/2000/svg" version="1.1" viewBox="0 0 128 128">
  <!-- Generator: Adobe Illustrator 29.0.1, SVG Export Plug-In . SVG Version: 2.1.0 Build 192)  -->
  <defs>
    <style>
      .st0 {
        fill: #fff;
      }
    </style>
  </defs>
  <rect x="11.8" y="11.8" width="104.41" height="104.41" rx="14.38" ry="14.38"/>
  <path class="st0" d="M34.26,76.51l14.06-1.37c.85,4.72,2.56,8.19,5.15,10.4,2.59,2.21,6.08,3.32,10.47,3.32,4.65,0,8.16-.98,10.52-2.95,2.36-1.97,3.54-4.27,3.54-6.91,0-1.69-.5-3.13-1.49-4.32-.99-1.19-2.73-2.22-5.2-3.1-1.69-.59-5.55-1.63-11.57-3.12-7.75-1.92-13.18-4.28-16.31-7.08-4.39-3.94-6.59-8.74-6.59-14.4,0-3.65,1.03-7.06,3.1-10.23,2.07-3.17,5.05-5.59,8.94-7.25,3.89-1.66,8.58-2.49,14.09-2.49,8.98,0,15.75,1.97,20.29,5.91,4.54,3.94,6.92,9.2,7.15,15.77l-14.45.63c-.62-3.68-1.95-6.32-3.98-7.93-2.04-1.61-5.09-2.42-9.16-2.42s-7.49.86-9.86,2.59c-1.53,1.11-2.29,2.59-2.29,4.44,0,1.69.72,3.14,2.15,4.35,1.82,1.53,6.25,3.12,13.28,4.79,7.03,1.66,12.23,3.38,15.6,5.15,3.37,1.77,6.01,4.2,7.91,7.28s2.86,6.88,2.86,11.4c0,4.1-1.14,7.94-3.42,11.52-2.28,3.58-5.5,6.24-9.67,7.98-4.17,1.74-9.36,2.61-15.58,2.61-9.05,0-16-2.09-20.85-6.27-4.85-4.18-7.75-10.28-8.69-18.29Z"/>
</svg>