<?xml version="1.0" encoding="UTF-8"?>
<svg id="Layer_1" xmlns="http://www.w3.org/2000/svg" version="1.1" viewBox="0 0 128 128">
  <!-- Generator: Adobe Illustrator 29.0.1, SVG Export Plug-In . SVG Version: 2.1.0 Build 192)  -->
  <g>
    <path d="M111.4,20.44c-1.57-1.64-3.46-2.73-5.58-2.77-.01,0-.03,0-.04,0-1.15.55-3.19,1.82-4.15,4.24-1.26,3.19-.17,7.03,2.72,9.64.02.02.04.02.07.02.26-.03.53-.04.83-.04.65,0,8.3.25,8.34,0,.03-.17,1.13-7.64-2.19-11.1Z"/>
    <path d="M102.49,42c-.67-2.95-1.6-6.07-1.05-8.12.21-.78.63-1.41,1.36-1.81.06-.03.07-.1.03-.15-2.8-2.95-3.78-7.02-2.42-10.47,1.08-2.73,3.32-4.21,4.66-4.88.03-.02.05-.05.04-.09-.26-1.33-.84-3.29-.96-3.54-2.21-4.79-7.99-6.25-12.36-6.86-5.13-.71-10.56-.37-15.09,2.43-4.87,3-6.71,7.68-7.34,13.54-.6,5.55-3.78,9.39-7.99,12.04-10.38,6.55-18.67,16.8-23.98,28.74-1.68,3.76-3.21,7.78-4.14,11.86-.31,1.36-.76,2.95-.12,4.3.2.43,1.7,1.93,2.55,2.06.15.02.23.21.14.35-.89,1.39-1.82,2.75-2.76,4.1-2.43,3.48-5,6.84-7.62,10.16-2.34,2.96-4.66,5.95-7.14,8.77-1.38,1.58-2.94,2.95-4.06,4.8-.36.6-.82,1.39-.9,2.12-.06.59.18,1.05.7,1.12,1.17.17,2.49-.11,3.63-.33,5.1-.99,9.98-3.74,14.38-6.72.71-.48,1.32-1.05,2.13-1.32.18-.06.34.16.24.35-1.74,3.28-3.94,6.37-6.08,9.31-1.04,1.44-4.69,4.78-3.13,6.89,1.45,1.96,4.7-1.16,5.99-2.04.13-.09.27-.18.4-.28,5.84-4.03,11.07-8.81,15.96-14.18,4.37-4.8,8.9-9.81,14.8-12.07-.12,1.48-.06,2.95.33,4.19,0,0-3.91.32-4.28,6.35,0,.06.05.12.12.11,1.43-.22,14.44.04,15.42.04h20.98c.35,0-.41-3.2-.51-3.4-.67-1.38-1.89-1.93-2.96-2.08-2.63-.37-6.64.94-8.19-3.45-.76-2.14-1.1-4.82-1.35-7.3,16.38-6.16,24.89-25.65,20.57-44.56ZM74.83,97.79c-2.31.24-4.89.44-7.12-.66-.94-.47-1.68-1.69-1.86-3.11-.16-1.29.02-2.35.43-3.22,3.87-1.13,7.82-1.92,11.71-3,.21,2.68.7,8.1,1.25,9.23-1.45.37-2.93.6-4.4.76ZM88.19,46.08c0,.05-.01.1-.02.15,0,.05-.01.09-.02.14,0,.03,0,.06-.01.1-.01.17-.03.42-.05.59-.77,5.21-4.17,9.99-8.88,12.4-.81.41-1.65.76-2.51,1.03-1.63.51-3.33.78-5.04.83-1.87.06-3.74.11-5.61.3-3.27.34-6.77.89-9.83,2.38-.39.19-.77.39-1.14.61-.31.18-.72.58-1.09.51-.15-.03-.27-.28-.35-.4-.26-.39-.48-.81-.69-1.23-.22-.47-.4-.96-.56-1.45-.32-1.02-.54-2.07-.69-3.12-.09-.62-.16-1.25-.2-1.88-.52-7.45,6.09-13.33,12.81-15.06,1.2-.31,2.45-.5,3.68-.6.98-.08,2.69-.22,2.82.7.03.23-.03.52-.22.89-.69,1.35-1.12,2.89-1.11,4.41,0,.78.12,1.56.37,2.3.15.46.68,2.02,1.25,2.1.67.1,1.23-.52,1.76-.84,2.3-1.38,4.88-1.55,7.51-1.76,2.14-.17,4.49-.4,6.22-1.8.05-.04.1-.08.14-.12.05-.04.09-.08.14-.12.05-.04.09-.09.13-.13.04-.04.09-.09.13-.13.04-.05.08-.09.13-.14.04-.05.08-.09.12-.14s.08-.1.12-.15c.04-.05.08-.1.11-.15.04-.05.07-.1.11-.15.04-.05.07-.1.1-.16.03-.05.07-.11.1-.16.03-.05.06-.11.09-.16.02-.03.03-.06.05-.09,0-.01.01-.03.02-.04,0-.01.03-.06.05-.04,0,0,0,.01,0,.02,0,.01,0,.02.01.03,0,.02.01.03.02.06.01.05.02.09.02.14,0,.05,0,.1,0,.15,0,.05,0,.1-.01.16ZM89.65,18.02c-.44-2.9,2.02-5.37,4.92-4.92,1.81.28,3.29,1.76,3.57,3.57.44,2.9-2.02,5.37-4.92,4.92-1.81-.28-3.29-1.76-3.57-3.57Z"/>
  </g>
  <path d="M93.89,20.65c-1.38,0-2.51-1.13-2.51-2.51,0-.36.3-.66.66-.66s.66.3.66.66c0,.66.53,1.19,1.19,1.19s1.19-.53,1.19-1.19c0-.36.3-.66.66-.66s.66.3.66.66c0,1.38-1.13,2.51-2.51,2.51Z"/>
</svg>